<svg viewBox="0 0 329.6667 86">
  <clipPath id="layer-sub" clipPathUnits="objectBoundingBox"
   transform="scale(0.003033 0.0116279)">
    <path d="M396.942,250.312c-27.017,0-48.997-21.98-48.997-48.997s21.979-48.997,48.996-48.997h60.373V0H54.685v402.629h118.927
			v26.982C173.611,475.041,210.571,512,255.999,512s82.389-36.959,82.389-82.389v-26.982h118.926V250.312H396.942z M423.922,369.239
			H304.997v60.374c0,27.017-21.98,48.996-48.997,48.996s-48.997-21.979-48.997-48.997v-60.374H88.077V33.391h335.845v85.535h-26.981
			c-45.429,0-82.389,36.959-82.389,82.389s36.96,82.389,82.389,82.389h26.981V369.239z"/>
  </clipPath>
</svg>
